<svg width="32" height="32" xmlns="http://www.w3.org/2000/svg">
 <g>
  <title>Layer 1</title>
  <rect rx="2" stroke="#000" id="svg_5" height="31" width="31" y="0.5" x="0.5" fill="none"/>
  <line stroke-width="0.5" id="svg_7" y2="10.4" x2="5.8" y1="18.7" x1="5.8" stroke="#000" fill="none"/>
  <line stroke-width="0.5" id="svg_8" y2="20.5" x2="9.2" y1="12.5" x1="9.2" stroke="#000" fill="none"/>
  <line stroke-width="0.5" id="svg_9" y2="12.65" x2="9.25" y1="10.5" x1="5.75" stroke="#000" fill="none"/>
  <line stroke-width="0.5" id="svg_10" y2="10.65" x2="12.7" y1="8.45" x1="9" stroke="#000" fill="none"/>
  <line id="svg_11" y2="20.6" x2="9.25" y1="18.5" x1="5.75" stroke-width="0.5" stroke="#000" fill="none"/>
  <line id="svg_12" y2="10.6" x2="12.5" y1="12.5" x1="9.25" stroke-width="0.5" stroke="#000" fill="none"/>
  <line id="svg_13" y2="8.5" x2="9.25" y1="10.6" x1="5.75" stroke-width="0.5" stroke="#000" fill="none"/>
  <line id="svg_14" y2="14" x2="12.55" y1="10.35" x1="12.55" stroke-width="0.5" stroke="#000" fill="none"/>
  <line id="svg_15" y2="19" x2="11.75" y1="20.65" x1="9" stroke-width="0.5" stroke="#000" fill="none"/>
  <line id="svg_16" y2="14.4" x2="11.8" y1="22.7" x1="11.8" stroke-width="0.5" stroke="#000" fill="none"/>
  <line id="svg_17" y2="16.34905" x2="15.2" y1="24.45835" x1="15.2" stroke-width="0.5" stroke="#000" fill="none"/>
  <line id="svg_18" y2="12.4" x2="15.4" y1="14.6" x1="11.75" stroke-width="0.5" stroke="#000" fill="none"/>
  <line id="svg_19" y2="24.6" x2="15.25" y1="22.5" x1="11.75" stroke-width="0.5" stroke="#000" fill="none"/>
  <line id="svg_20" y2="16.6" x2="15.25" y1="14.5" x1="11.75" stroke-width="0.5" stroke="#000" fill="none"/>
  <line id="svg_21" y2="14.6" x2="18.5" y1="16.5" x1="15.25" stroke-width="0.5" stroke="#000" fill="none"/>
  <line id="svg_22" y2="23.2" x2="17.5" y1="24.65" x1="15" stroke-width="0.5" stroke="#000" fill="none"/>
  <line id="svg_23" y2="14.5" x2="18.5" y1="12.6" x1="15.25" stroke-width="0.5" stroke="#000" fill="none"/>
  <line id="svg_24" y2="9" x2="18.55" y1="15.5" x1="18.55" stroke-width="0.5" stroke="#000" fill="none"/>
  <line id="svg_25" y2="7.22609" x2="15.2" y1="12.42662" x1="15.2" stroke-width="0.5" stroke="#000" fill="none"/>
  <line id="svg_26" y2="7.25" x2="15.1" y1="9.25" x1="18.5" stroke-width="0.5" stroke="#000" fill="none"/>
  <line id="svg_27" y2="7.25" x2="21.95" y1="14.5" x1="21.95" stroke-width="0.5" stroke="#000" fill="none"/>
  <line id="svg_28" y2="5.25" x2="18.75" y1="7.4" x1="15.1" stroke-width="0.5" stroke="#000" fill="none"/>
  <line id="svg_29" y2="7.25" x2="22" y1="9.35" x1="18.5" stroke-width="0.5" stroke="#000" fill="none"/>
  <line id="svg_30" y2="7.4" x2="22.1" y1="5.25" x1="18.5" stroke-width="0.5" stroke="#000" fill="none"/>
  <ellipse ry="4.25" rx="4.25" id="svg_31" cy="19.85" cx="21.6" stroke-width="0.75" stroke="#000" fill="none"/>
  <line id="svg_32" y2="19.9" x2="24.1" y1="19.9" x1="19.1" stroke-width="0.75" stroke="#000" fill="none"/>
  <line id="svg_33" y2="17.4" x2="21.6" y1="22.4" x1="21.6" stroke-width="0.75" stroke="#000" fill="none"/>
 </g>

</svg>